<svg width="40" height="41" viewBox="0 0 40 41" fill="none" xmlns="http://www.w3.org/2000/svg">
<path id="Forma 1" d="M19.9939 37.5552L16.5229 40.4551L14.2349 36.5352L9.99487 38.0471L9.17285 33.5671L4.67987 33.5222L5.41187 29.0222L1.20386 27.4221L3.41388 23.4563L-0.00012207 20.4912L3.41187 17.5242L1.2019 13.5591L5.41089 11.9592L4.67786 7.46411L9.17188 7.42017L9.9939 2.94019L14.2339 4.45117L16.5219 0.53125L19.9929 3.43115L23.4639 0.53125L25.7529 4.45215L29.9929 2.94019L30.8139 7.42114L35.3079 7.46606L34.5759 11.9612L38.7839 13.5613L36.5739 17.5271L39.9859 20.4922L36.5739 23.4592L38.7829 27.4253L34.5739 29.0251L35.3069 33.5193L30.8119 33.5642L29.9909 38.0452L25.7529 36.5342L23.4639 40.4541L19.9939 37.5552ZM21.1999 36.0723L22.9609 37.5432L24.1219 35.5532L24.9139 34.1973L26.3819 34.7202L28.5329 35.4883L28.9499 33.2151L29.2349 31.6602L30.7959 31.6443L33.0779 31.6233L32.7059 29.3411L32.4519 27.7812L33.9109 27.2273L36.0449 26.4141L34.9249 24.4043L34.1589 23.0293L35.3419 22.0022L37.0759 20.4922L35.3429 18.9922L34.1599 17.9631L34.9259 16.5872L36.0469 14.5762L33.9129 13.7651L32.4539 13.2122L32.7089 11.6521L33.0809 9.37109L30.7989 9.34814L29.2389 9.33228L28.9539 7.77808L28.5379 5.50513L26.3859 6.27222L24.9179 6.79517L24.1249 5.43823L22.9629 3.44824L21.2009 4.91919L19.9958 5.92407L18.7909 4.91919L17.0299 3.44824L15.8689 5.43726L15.0769 6.79419L13.6078 6.27124L11.4579 5.50317L11.0399 7.7771L10.7549 9.3313L9.19489 9.34717L6.91388 9.36914L7.28589 11.6511L7.53986 13.2092L6.08087 13.7642L3.94586 14.5752L5.06689 16.5862L5.83289 17.9612L4.6499 18.9902L2.91589 20.4983L4.64886 22.0051L5.83185 23.0342L5.06586 24.4092L3.94489 26.4192L6.07788 27.2292L7.5379 27.7842L7.2829 29.3433L6.91187 31.6272L9.19287 31.6501L10.7529 31.6663L11.0379 33.2212L11.4549 35.4932L13.6069 34.7261L15.0759 34.2031L15.8679 35.5601L17.0299 37.5503L18.7909 36.0791L19.9958 35.0742L21.1999 36.0723ZM21.3179 23.5513C21.3179 20.6243 22.8829 18.9961 24.7769 18.9961C26.7829 18.9961 28.0769 20.5592 28.0769 23.3262C28.0769 26.3852 26.4919 27.9031 24.6619 27.9031C22.8829 27.9031 21.3379 26.4533 21.3179 23.5513ZM22.8389 23.4631C22.8159 25.3141 23.5209 26.7212 24.7109 26.7212C25.9879 26.7212 26.5609 25.3361 26.5609 23.4211C26.5609 21.6561 26.0539 20.1841 24.7109 20.1841C23.4999 20.1801 22.8389 21.6342 22.8389 23.4622V23.4631ZM15.1938 27.8633L23.6089 13.1443H24.8419L16.4269 27.8633H15.1938ZM11.9789 17.5212C11.9789 14.6212 13.5419 12.9893 15.4369 12.9893C17.4369 12.9893 18.7629 14.5533 18.7629 17.3213C18.7629 20.3793 17.1769 21.8962 15.3269 21.8962C13.5439 21.8962 11.9999 20.4462 11.9789 17.5222V17.5212ZM13.5209 17.4551C13.4769 19.3061 14.1618 20.7121 15.3708 20.7141C16.6479 20.7141 17.2209 19.3301 17.2209 17.4141C17.2209 15.6481 16.7139 14.1763 15.3708 14.1763C14.1618 14.1733 13.5209 15.6233 13.5209 17.4563V17.4551Z" fill="#F16D7F"/>
</svg>
